<svg id="Layer_1" enable-background="new 0 0 512 512" height="512" viewBox="0 0 512 512" width="512" xmlns="http://www.w3.org/2000/svg"><g><g><path d="m126.861 206.43c0-.303.014-.603.023-.904-16.287 2.281-35.934 8.084-49.975 22.125-28.415 28.415-23.102 79.799-23.102 79.799s51.384 5.313 79.799-23.103c13.082-13.082 19.013-31.031 21.606-46.595-15.917-1.569-28.351-14.992-28.351-31.322z" fill="#2d4456"/><path d="m133.605 266.348c-28.415 28.416-79.799 23.103-79.799 23.103s-.042-.415-.099-1.177c-.715 11.296.099 19.177.099 19.177s51.384 5.313 79.799-23.103c13.082-13.082 19.013-31.031 21.606-46.595-1.448-.143-2.865-.386-4.249-.719-3.511 10.499-8.953 20.91-17.357 29.314z" fill="#253847"/><path d="m385.139 206.43c0-.303-.014-.603-.023-.904 16.287 2.281 35.934 8.084 49.975 22.125 28.415 28.415 23.102 79.799 23.102 79.799s-51.383 5.313-79.799-23.103c-13.082-13.082-19.013-31.031-21.607-46.595 15.918-1.569 28.352-14.992 28.352-31.322z" fill="#2d4456"/><path d="m458.193 289.451s-51.383 5.313-79.799-23.103c-8.404-8.404-13.845-18.816-17.358-29.313-1.383.332-2.801.576-4.249.719 2.594 15.563 8.524 33.512 21.607 46.595 28.415 28.416 79.799 23.103 79.799 23.103s.814-7.882.099-19.177c-.056.761-.099 1.176-.099 1.176z" fill="#253847"/><path d="m127.4 200.652c-31.16-84.966 13.549-192.652 128.6-192.652s159.76 107.686 128.6 192.652z" fill="#2d4456"/><path d="m301.801 109.148s13.201 40.777 48.72 54.621v48.83c0 52.202-42.318 94.52-94.521 94.52-52.202 0-94.521-42.318-94.521-94.52v-57.912c.005.001 99.938 8.289 140.322-45.539z" fill="#ffe0cc"/><path d="m256 289.12c-52.202 0-94.521-42.318-94.521-94.52v18c0 52.202 42.318 94.52 94.521 94.52 52.202 0 94.521-42.318 94.521-94.52v-18c0 52.201-42.319 94.52-94.521 94.52z" fill="#ffceb3"/><path d="m407.012 504h-302.024v-80.421c0-64.319 52.141-116.459 116.459-116.459h69.106c64.319 0 116.459 52.141 116.459 116.459z" fill="#ffcf4d"/><path d="m104.988 486h302.025v18h-302.025z" fill="#ffb629"/><path d="m118.672 365.492c6.657-5.059 16.298-2.476 19.533 5.234 2.223 5.297 7.705 8.462 13.404 7.739 8.294-1.053 15.352 6.005 14.299 14.299-.723 5.699 2.442 11.181 7.739 13.404 7.71 3.235 10.293 12.876 5.234 19.533-3.476 4.574-3.476 10.904 0 15.478 5.059 6.657 2.476 16.297-5.234 19.533-5.297 2.223-8.462 7.705-7.739 13.404 1.053 8.294-6.005 15.352-14.299 14.299-5.699-.723-11.181 2.442-13.404 7.739-3.235 7.71-12.876 10.293-19.533 5.234-4.574-3.476-10.904-3.476-15.478 0-6.657 5.059-16.297 2.476-19.533-5.234-2.223-5.297-7.705-8.462-13.404-7.739-8.294 1.053-15.352-6.005-14.299-14.299.723-5.699-2.442-11.181-7.739-13.404-7.709-3.235-10.293-12.876-5.234-19.533 3.476-4.574 3.476-10.904 0-15.478-5.059-6.657-2.476-16.298 5.234-19.533 5.297-2.223 8.462-7.705 7.739-13.404-1.053-8.294 6.005-15.352 14.299-14.299 5.699.723 11.181-2.442 13.404-7.739 3.235-7.71 12.876-10.293 19.533-5.234 4.574 3.476 10.904 3.476 15.478 0z" fill="#ff5876"/><g><g><path d="m177.944 439.739c-1.172 1.23-2.602 2.263-4.296 2.974-5.297 2.223-8.462 7.705-7.739 13.404 1.053 8.294-6.005 15.352-14.299 14.299-5.699-.723-11.181 2.442-13.404 7.739-3.235 7.71-12.876 10.293-19.533 5.234-4.574-3.476-10.904-3.476-15.478 0-6.657 5.059-16.297 2.476-19.533-5.234-2.223-5.297-7.705-8.462-13.404-7.739-8.294 1.053-15.352-6.005-14.299-14.299.723-5.699-2.442-11.181-7.739-13.404-1.694-.711-3.124-1.744-4.296-2.974-.28.494-.586.978-.938 1.441-5.059 6.657-2.476 16.297 5.234 19.533 5.297 2.223 8.462 7.705 7.739 13.404-1.053 8.294 6.005 15.352 14.299 14.299 5.699-.723 11.181 2.442 13.404 7.739 3.235 7.71 12.876 10.293 19.533 5.234 4.574-3.476 10.904-3.476 15.478 0 6.657 5.059 16.298 2.476 19.533-5.234 2.223-5.297 7.705-8.462 13.404-7.739 8.294 1.053 15.352-6.005 14.299-14.299-.723-5.699 2.442-11.181 7.739-13.404 7.71-3.235 10.293-12.876 5.234-19.533-.352-.463-.658-.947-.938-1.441z" fill="#e6485d"/></g></g><path d="m393.328 365.492c-6.657-5.059-16.298-2.476-19.533 5.234-2.223 5.297-7.705 8.462-13.404 7.739-8.294-1.053-15.352 6.005-14.299 14.299.723 5.699-2.442 11.181-7.739 13.404-7.71 3.235-10.293 12.876-5.234 19.533 3.476 4.574 3.476 10.904 0 15.478-5.059 6.657-2.476 16.297 5.234 19.533 5.297 2.223 8.462 7.705 7.739 13.404-1.053 8.294 6.005 15.352 14.299 14.299 5.699-.723 11.181 2.442 13.404 7.739 3.235 7.71 12.876 10.293 19.533 5.234 4.574-3.476 10.904-3.476 15.478 0 6.657 5.059 16.298 2.476 19.533-5.234 2.223-5.297 7.705-8.462 13.404-7.739 8.294 1.053 15.352-6.005 14.299-14.299-.723-5.699 2.442-11.181 7.739-13.404 7.71-3.235 10.293-12.876 5.234-19.533-3.476-4.574-3.476-10.904 0-15.478 5.059-6.657 2.476-16.298-5.234-19.533-5.297-2.223-8.462-7.705-7.739-13.404 1.053-8.294-6.005-15.352-14.299-14.299-5.699.723-11.181-2.442-13.404-7.739-3.235-7.71-12.876-10.293-19.533-5.234-4.574 3.476-10.904 3.476-15.478 0z" fill="#ff5876"/><g><g><path d="m468.078 439.739c-1.172 1.23-2.602 2.263-4.296 2.974-5.297 2.223-8.462 7.705-7.739 13.404 1.053 8.294-6.005 15.352-14.299 14.299-5.699-.723-11.181 2.442-13.404 7.739-3.235 7.71-12.876 10.293-19.533 5.234-4.574-3.476-10.904-3.476-15.478 0-6.657 5.059-16.298 2.476-19.533-5.234-2.223-5.297-7.705-8.462-13.404-7.739-8.294 1.053-15.352-6.005-14.299-14.299.723-5.699-2.442-11.181-7.739-13.404-1.694-.711-3.124-1.744-4.296-2.974-.28.495-.586.979-.938 1.441-5.059 6.657-2.476 16.297 5.234 19.533 5.297 2.223 8.462 7.705 7.739 13.404-1.053 8.294 6.005 15.352 14.299 14.299 5.699-.723 11.181 2.442 13.404 7.739 3.235 7.71 12.876 10.293 19.533 5.234 4.574-3.476 10.904-3.476 15.478 0 6.657 5.059 16.298 2.476 19.533-5.234 2.223-5.297 7.705-8.462 13.404-7.739 8.294 1.053 15.352-6.005 14.299-14.299-.723-5.699 2.442-11.181 7.739-13.404 7.71-3.235 10.293-12.876 5.234-19.533-.352-.463-.658-.947-.938-1.441z" fill="#e6485d"/></g></g><path d="m292.859 307.149-36.859 57.893-36.859-57.893z" fill="#ffe0cc"/><g fill="#ffc4ad"><path d="m161.594 212.955v-37.836c-1.07-.11-2.156-.167-3.255-.167-17.385 0-31.478 14.093-31.478 31.479 0 17.385 14.093 31.479 31.478 31.479 2.199 0 4.346-.227 6.418-.657-2.059-7.754-3.163-15.897-3.163-24.298z"/><path d="m353.66 174.952c-1.099 0-2.185.057-3.255.167v37.836c0 8.401-1.103 16.544-3.163 24.297 2.072.429 4.218.657 6.418.657 17.385 0 31.478-14.093 31.478-31.479.001-17.385-14.092-31.478-31.478-31.478z"/></g><path d="m158.34 219.909c-14.257 0-26.293-9.48-30.166-22.479-.85 2.852-1.313 5.872-1.313 9 0 17.385 14.093 31.479 31.478 31.479 2.199 0 4.346-.227 6.418-.657-1.502-5.656-2.489-11.522-2.917-17.542-1.149.128-2.316.199-3.5.199z" fill="#ffb69f"/><path d="m353.66 219.909c-1.184 0-2.351-.071-3.501-.199-.427 6.02-1.414 11.886-2.917 17.542 2.072.429 4.218.657 6.418.657 17.385 0 31.478-14.093 31.478-31.479 0-3.129-.463-6.148-1.313-9-3.872 12.999-15.908 22.479-30.165 22.479z" fill="#ffb69f"/><g fill="#ffe0cc"><path d="m138.205 370.726c2.223 5.297 7.705 8.463 13.404 7.739 8.294-1.053 15.352 6.005 14.299 14.299l7.394-33.008-13.145-35.214c-15.833 9.819-29.116 23.341-38.688 39.339 6.315-2.66 13.931.161 16.736 6.845z"/><path d="m373.795 370.726c-2.223 5.297-7.705 8.463-13.404 7.739-8.294-1.053-15.352 6.005-14.299 14.299l-7.394-33.008 13.145-35.214c15.833 9.819 29.115 23.341 38.688 39.339-6.315-2.66-13.931.161-16.736 6.845z"/></g></g><g><g><path d="m210.11 175.891c-4.15 0-7.515 3.364-7.515 7.515v21.231c0 4.151 3.364 7.515 7.515 7.515 4.15 0 7.515-3.364 7.515-7.515v-21.231c-.001-4.151-3.365-7.515-7.515-7.515z"/><path d="m301.89 212.151c4.15 0 7.515-3.364 7.515-7.515v-21.231c0-4.151-3.365-7.515-7.515-7.515s-7.515 3.364-7.515 7.515v21.231c.001 4.151 3.365 7.515 7.515 7.515z"/><path d="m253.722 410.609c4.375 0 8.156 3.113 8.989 7.4.792 4.073 4.735 6.733 8.81 5.943 4.074-.792 6.735-4.736 5.943-8.81-2.203-11.336-12.188-19.562-23.742-19.562-13.34 0-24.193 10.853-24.193 24.194v28.019c0 13.34 10.853 24.194 24.193 24.194 11.554 0 21.539-8.228 23.742-19.563.792-4.074-1.869-8.018-5.943-8.81-4.067-.787-8.018 1.869-8.81 5.943-.833 4.289-4.614 7.401-8.989 7.401-5.053 0-9.164-4.112-9.164-9.164v-28.019c-.001-5.055 4.11-9.166 9.164-9.166z"/><path d="m475.413 430.575c3.833-5.043 5.091-11.444 3.451-17.563-1.639-6.118-5.93-11.033-11.77-13.484-2.187-.918-3.505-3.202-3.207-5.555.797-6.284-1.314-12.456-5.793-16.935-4.478-4.478-10.65-6.588-16.936-5.793-2.35.299-4.637-1.02-5.555-3.207-2.451-5.841-7.366-10.131-13.485-11.77-6.116-1.64-12.519-.381-17.561 3.451-1.888 1.433-4.527 1.433-6.415 0-.655-.498-1.334-.95-2.031-1.36-10.758-17.277-25.676-31.765-43.288-41.976-13.979-8.105-29.442-13.366-45.435-15.539 20.094-11.735 35.842-30.127 44.203-52.132 4.182 16.964 11.461 30.736 21.728 41.002 2.935 2.934 7.693 2.935 10.627-.001 2.935-2.934 2.935-7.693 0-10.627-8.609-8.608-14.698-20.556-18.156-35.574 13.265-4.27 23.459-15.449 26.311-29.284 12.506 2.615 27.266 7.921 38.025 18.678 19.955 19.957 21.569 53.522 21.297 67.483-9.399.189-27.647-.474-44.659-7.012-3.877-1.489-8.221.445-9.71 4.319s.445 8.221 4.319 9.71c17.68 6.794 36.003 8.061 47.211 8.061 11.036-.718 14.801 1.637 17.478-7.146.232-2.247 5.339-55.394-25.308-86.042-11.569-11.568-27.518-19.328-47.451-23.141 16.233-48.065 9.527-101.686-17.866-140.91-26.225-37.549-68.642-58.228-119.437-58.228-34.638 0-64.68 9.173-89.292 27.264-3.344 2.458-4.063 7.161-1.604 10.506 2.457 3.342 7.16 4.062 10.505 1.604 21.977-16.154 49.024-24.345 80.391-24.345 23.999 0 45.674 4.872 64.421 14.48 17.183 8.806 31.547 21.364 42.693 37.325 22.1 31.643 29.216 73.814 19.917 113.58-6.247-7.026-14.982-11.786-24.812-12.886v-3.941c0-3.097-1.9-5.877-4.786-7.002-31.729-12.367-44.275-49.677-44.398-50.051-.867-2.664-3.145-4.624-5.909-5.085-2.769-.466-5.563.658-7.247 2.902-37.429 49.889-133.01 42.73-133.973 42.647-.203-.016-.408-.024-.612-.024-4.15 0-7.515 3.364-7.515 7.515v13.04c-9.827 1.099-18.559 5.857-24.806 12.879-10.132-43.424-.606-89.591 26.076-121.654 2.655-3.191 2.221-7.929-.97-10.583-3.19-2.657-7.928-2.222-10.583.969-32.839 39.463-42.379 97.909-24.794 149.998-19.936 3.813-35.887 11.573-47.457 23.143-30.647 30.647-25.541 83.794-25.308 86.041 2.645 8.822 6.68 6.433 17.613 7.158 17.618 0 52.505-3.141 75.129-25.765 10.267-10.267 17.545-24.038 21.728-41.002 8.361 22.004 24.109 40.396 44.203 52.132-15.993 2.174-31.456 7.434-45.435 15.539-17.611 10.211-32.529 24.699-43.287 41.976-.697.41-1.376.862-2.031 1.36-1.888 1.436-4.526 1.435-6.414.001-5.043-3.834-11.442-5.093-17.562-3.452-6.118 1.639-11.034 5.929-13.485 11.77-.918 2.188-3.21 3.507-5.555 3.207-6.287-.798-12.457 1.314-16.935 5.793-4.479 4.479-6.59 10.651-5.793 16.935.298 2.353-1.02 4.637-3.207 5.555-5.84 2.451-10.131 7.366-11.77 13.484-1.639 6.119-.382 12.52 3.451 17.563 1.435 1.888 1.435 4.526 0 6.415-2.973 3.911-4.429 8.753-4.103 13.636.277 4.141 3.852 7.273 8 6.996 4.141-.277 7.273-3.859 6.996-8-.06-.891.078-2.23 1.072-3.538 5.504-7.243 5.504-17.36 0-24.602-2.023-3.692-1.429-5.909 2.169-8.095 8.388-3.52 13.447-12.281 12.302-21.306.093-4.207 1.718-5.833 5.926-5.926 9.026 1.143 17.785-3.912 21.306-12.301 2.186-3.598 4.404-4.191 8.095-2.168 7.243 5.503 17.359 5.504 24.602-.001 3.691-2.021 5.909-1.43 8.095 2.169 3.52 8.388 12.277 13.447 21.306 12.301 4.208.093 5.833 1.717 5.926 5.926-1.146 9.024 3.913 17.786 12.301 21.306 2.085.875 2.818 2.578 3.069 3.516.251.937.468 2.779-.9 4.579-5.504 7.242-5.504 17.36 0 24.602 2.023 3.692 1.429 5.908-2.17 8.095-8.388 3.521-13.446 12.283-12.3 21.306-.093 4.208-1.718 5.832-5.926 5.926-9.027-1.14-17.786 3.912-21.306 12.301-1.99 3.666-4.989 4.098-8.096 2.168-7.241-5.503-17.358-5.503-24.601 0-3.692 2.025-5.909 1.429-8.095-2.168-3.52-8.388-12.276-13.441-21.306-12.301-4.21-.092-5.831-1.717-5.926-5.926.522-4.117-2.391-7.879-6.509-8.401-4.12-.528-7.879 2.392-8.401 6.509-.797 6.284 1.314 12.456 5.792 16.935 4.479 4.479 10.65 6.588 16.936 5.793 2.352-.301 4.637 1.021 5.555 3.207 2.451 5.841 7.365 10.13 13.484 11.769 1.759.472 3.541.703 5.309.703h321.622c1.767 0 3.55-.232 5.309-.703 6.118-1.639 11.033-5.928 13.484-11.769.918-2.189 3.205-3.51 5.555-3.207 6.283.796 12.456-1.314 16.935-5.793s6.59-10.651 5.793-16.935c-.299-2.353 1.021-4.638 3.207-5.556 5.84-2.451 10.13-7.366 11.77-13.484 1.639-6.118.382-12.519-3.451-17.562-1.435-1.89-1.435-4.528 0-6.417zm-98.173-73.096c-4.553 2.111-8.158 5.825-10.145 10.559-.917 2.188-3.201 3.508-5.555 3.207-4.196-.531-8.343.241-11.971 2.143l-2.889-12.898 9.039-24.213c8.108 6.04 15.36 13.184 21.521 21.202zm-97.984-42.748-23.256 36.528-23.256-36.528zm98.619-108.4c0 12.287-9.274 22.444-21.189 23.852 1.005-5.742 1.533-11.646 1.533-17.672v-29.8c11.168 2.062 19.656 11.865 19.656 23.62zm-224.094-23.619v29.8c0 6.026.528 11.93 1.533 17.672-11.915-1.408-21.189-11.565-21.189-23.852 0-11.756 8.488-21.559 19.656-23.62zm-25.727 96.374c-19.956 19.957-53.505 21.57-67.477 21.299-.272-13.97 1.345-47.525 21.297-67.478 10.758-10.758 25.519-16.064 38.025-18.679 2.852 13.835 13.046 25.014 26.311 29.284-3.459 15.018-9.548 26.966-18.156 35.574zm40.756-66.575v-50.129c23.665.691 92.436-.916 130.857-39.511 6.557 13.313 20.118 34.586 43.524 45.655v43.985c0 48.077-39.114 87.19-87.19 87.19s-87.191-39.113-87.191-87.19zm-18.35 158.734c-2.356.302-4.637-1.021-5.555-3.207-1.987-4.733-5.592-8.448-10.145-10.559 6.161-8.018 13.413-15.162 21.522-21.201l9.039 24.212-2.889 12.897c-3.627-1.901-7.773-2.673-11.972-2.142zm0 125.075c6.285.797 12.457-1.314 16.936-5.793s6.59-10.651 5.793-16.935c-.299-2.353 1.02-4.638 3.207-5.556 5.841-2.451 10.131-7.367 11.77-13.485s.381-12.519-3.451-17.561c-1.435-1.888-1.435-4.526-.001-6.415 3.833-5.043 5.09-11.444 3.452-17.562-1.639-6.118-5.929-11.034-11.771-13.485-2.128-.893-3.421-3.08-3.214-5.366l7.294-32.565c.319-1.422.217-2.906-.293-4.271l-10.954-29.344c14.08-7.668 29.755-12.127 45.823-13.057l34.611 54.362c2.729 4.58 9.949 4.579 12.678 0l34.611-54.362c16.067.93 31.743 5.389 45.823 13.057l-10.954 29.344c-.51 1.365-.612 2.849-.293 4.271l7.294 32.565c.206 2.285-1.087 4.473-3.215 5.366-5.841 2.451-10.131 7.367-11.771 13.485-1.639 6.118-.381 12.519 3.451 17.562 1.435 1.888 1.435 4.526 0 6.415-3.833 5.042-5.09 11.443-3.452 17.561 1.639 6.118 5.93 11.034 11.77 13.484 2.187.919 3.506 3.203 3.207 5.557-.798 6.284 1.314 12.456 5.792 16.935 4.479 4.479 10.651 6.588 16.936 5.793 1.153-.146 2.288.101 3.257.645h-217.597c.968-.544 2.105-.791 3.261-.645zm312.987-50.236c2.023 3.692 1.429 5.908-2.17 8.095-8.387 3.521-13.446 12.282-12.301 21.306-.093 4.208-1.719 5.832-5.926 5.926-9.021-1.136-17.786 3.912-21.306 12.301-2.185 3.597-4.404 4.192-8.095 2.168-7.242-5.503-17.359-5.503-24.601 0-3.108 1.929-6.104 1.499-8.096-2.168-3.188-7.597-10.674-12.462-18.761-12.462-4.563.617-8.722-.333-8.471-5.765 1.146-9.023-3.912-17.785-12.301-21.307-3.598-2.185-4.193-4.402-2.169-8.094 5.504-7.243 5.504-17.36 0-24.602-2.023-3.692-1.43-5.909 2.169-8.095 8.388-3.52 13.447-12.282 12.301-21.306.094-4.207 1.717-5.833 5.926-5.926 9.022 1.139 17.786-3.912 21.306-12.301 2.185-3.598 4.406-4.191 8.096-2.168 7.242 5.503 17.359 5.504 24.602-.001 3.692-2.022 5.908-1.429 8.094 2.169 3.52 8.388 12.279 13.441 21.306 12.301 4.211.095 5.831 1.716 5.926 5.926-1.145 9.025 3.914 17.786 12.301 21.306 3.597 2.186 4.193 4.402 2.169 8.095-5.503 7.242-5.503 17.359.001 24.602z"/><path d="m283.67 245.123-.001-.001c.44-.955.692-2.014.692-3.135 0-4.15-3.364-7.515-7.515-7.515-3.179 0-5.891 1.977-6.989 4.766l-.012-.005c-.317.668-3.398 6.523-13.845 6.523s-13.528-5.854-13.845-6.523l-.012.005c-1.098-2.789-3.81-4.766-6.989-4.766-4.15 0-7.515 3.364-7.515 7.515 0 1.12.252 2.18.692 3.135l-.001.001c2.395 5.817 10.918 15.662 27.67 15.662s25.275-9.845 27.67-15.662z"/></g></g></g></svg>